HIERARCHY
ROOT Hips
{
  OFFSET 363.916 89.4436 202.859
  CHANNELS 6 Xposition Yposition Zposition Zrotation Xrotation Yrotation
  JOINT RightUpLeg
  {
    OFFSET -9.22681 -1.41939 0.059526
    CHANNELS 3 Zrotation Xrotation Yrotation
    JOINT RightLeg
    {
      OFFSET 0.076897 -41.8891 0.179098
      CHANNELS 3 Zrotation Xrotation Yrotation
      JOINT RightFoot
      {
        OFFSET -0.0130714 -43.0092 0.527065
        CHANNELS 3 Zrotation Xrotation Yrotation
        End Site
        {
          OFFSET 0 -7.69 17.5
        }
      }
    }
  }
  JOINT LeftUpLeg
  {
    OFFSET 9.19333 -1.7604 -0.077889
    CHANNELS 3 Zrotation Xrotation Yrotation
    JOINT LeftLeg
    {
      OFFSET -0.0291634 -41.859 -0.15197
      CHANNELS 3 Zrotation Xrotation Yrotation
      JOINT LeftFoot
      {
        OFFSET 0.141288 -40.5593 0.458407
        CHANNELS 3 Zrotation Xrotation Yrotation
        End Site
        {
          OFFSET 0 -7.69 17.5
        }
      }
    }
  }
  JOINT Spine
  {
    OFFSET 0.215607 14.2961 0.04713
    CHANNELS 3 Zrotation Xrotation Yrotation
    JOINT Spine1
    {
      OFFSET 0.127345 9.70675 0.00151561
      CHANNELS 3 Zrotation Xrotation Yrotation
      JOINT Spine2
      {
        OFFSET 0.0493166 10.1169 -0.00299987
        CHANNELS 3 Zrotation Xrotation Yrotation
        JOINT Spine3
        {
          OFFSET 0.0599611 9.70888 0.0197622
          CHANNELS 3 Zrotation Xrotation Yrotation
          JOINT Neck
          {
            OFFSET 0.305156 10.372 0.0704915
            CHANNELS 3 Zrotation Xrotation Yrotation
            JOINT Head
            {
              OFFSET 0.288394 9.47974 0.0406202
              CHANNELS 3 Zrotation Xrotation Yrotation
              End Site
              {
                OFFSET 0 15.95 0
              }
            }
          }
          JOINT RightShoulder
          {
            OFFSET -3.14873 6.92098 0.0285763
            CHANNELS 3 Zrotation Xrotation Yrotation
            JOINT RightArm
            {
              OFFSET -12.7049 -0.00288304 0.0369593
              CHANNELS 3 Zrotation Xrotation Yrotation
              JOINT RightForeArm
              {
                OFFSET -26.4954 -0.160471 0.0134548
                CHANNELS 3 Zrotation Xrotation Yrotation
                JOINT RightHand
                {
                  OFFSET -26.0026 -0.0211725 -0.0218708
                  CHANNELS 3 Zrotation Xrotation Yrotation
                  JOINT RightHandThumb1
                  {
                    OFFSET -2.48905 0.190105 3.12053
                    CHANNELS 3 Zrotation Xrotation Yrotation
                    JOINT RightHandThumb2
                    {
                      OFFSET -3.68274 0 0
                      CHANNELS 3 Zrotation Xrotation Yrotation
                      JOINT RightHandThumb3
                      {
                        OFFSET -2.55832 0 0
                        CHANNELS 3 Zrotation Xrotation Yrotation
                        End Site
                        {
                          OFFSET -2.194 0 0
                        }
                      }
                    }
                  }
                  JOINT RightInHandIndex
                  {
                    OFFSET -3.22368 0.508421 1.97842
                    CHANNELS 3 Zrotation Xrotation Yrotation
                    JOINT RightHandIndex1
                    {
                      OFFSET -5.21684 -0.091368 0.999158
                      CHANNELS 3 Zrotation Xrotation Yrotation
                      JOINT RightHandIndex2
                      {
                        OFFSET -3.61937 0 0
                        CHANNELS 3 Zrotation Xrotation Yrotation
                        JOINT RightHandIndex3
                        {
                          OFFSET -2.0521 0 0
                          CHANNELS 3 Zrotation Xrotation Yrotation
                          End Site
                          {
                            OFFSET -1.805 0 0
                          }
                        }
                      }
                    }
                  }
                  JOINT RightInHandMiddle
                  {
                    OFFSET -3.38211 0.517263 0.756737
                    CHANNELS 3 Zrotation Xrotation Yrotation
                    JOINT RightHandMiddle1
                    {
                      OFFSET -5.17411 -0.084 0.313895
                      CHANNELS 3 Zrotation Xrotation Yrotation
                      JOINT RightHandMiddle2
                      {
                        OFFSET -3.94947 0 0
                        CHANNELS 3 Zrotation Xrotation Yrotation
                        JOINT RightHandMiddle3
                        {
                          OFFSET -2.47579 0 0
                          CHANNELS 3 Zrotation Xrotation Yrotation
                          End Site
                          {
                            OFFSET -1.975 0 0
                          }
                        }
                      }
                    }
                  }
                  JOINT RightInHandRing
                  {
                    OFFSET -3.36516 0.537895 -0.128947
                    CHANNELS 3 Zrotation Xrotation Yrotation
                    JOINT RightHandRing1
                    {
                      OFFSET -4.63474 -0.022105 -0.478947
                      CHANNELS 3 Zrotation Xrotation Yrotation
                      JOINT RightHandRing2
                      {
                        OFFSET -3.44238 0 0
                        CHANNELS 3 Zrotation Xrotation Yrotation
                        JOINT RightHandRing3
                        {
                          OFFSET -2.3881 0 0
                          CHANNELS 3 Zrotation Xrotation Yrotation
                          End Site
                          {
                            OFFSET -1.857 0 0
                          }
                        }
                      }
                    }
                  }
                  JOINT RightInHandPinky
                  {
                    OFFSET -3.16105 0.469368 -1.20179
                    CHANNELS 3 Zrotation Xrotation Yrotation
                    JOINT RightHandPinky1
                    {
                      OFFSET -4.14105 -0.022105 -1.09053
                      CHANNELS 3 Zrotation Xrotation Yrotation
                      JOINT RightHandPinky2
                      {
                        OFFSET -2.75653 0 0
                        CHANNELS 3 Zrotation Xrotation Yrotation
                        JOINT RightHandPinky3
                        {
                          OFFSET -1.74189 0 0
                          CHANNELS 3 Zrotation Xrotation Yrotation
                          End Site
                          {
                            OFFSET -1.645 0 0
                          }
                        }
                      }
                    }
                  }
                }
              }
            }
          }
          JOINT LeftShoulder
          {
            OFFSET 3.26342 6.92519 -0.0174379
            CHANNELS 3 Zrotation Xrotation Yrotation
            JOINT LeftArm
            {
              OFFSET 12.8742 -0.0269705 -0.0666419
              CHANNELS 3 Zrotation Xrotation Yrotation
              JOINT LeftForeArm
              {
                OFFSET 26.5114 0.000826062 -0.052783
                CHANNELS 3 Zrotation Xrotation Yrotation
                JOINT LeftHand
                {
                  OFFSET 25.9941 -0.0689373 0.00603348
                  CHANNELS 3 Zrotation Xrotation Yrotation
                  JOINT LeftHandThumb1
                  {
                    OFFSET 2.48905 0.190105 3.12053
                    CHANNELS 3 Zrotation Xrotation Yrotation
                    JOINT LeftHandThumb2
                    {
                      OFFSET 3.68274 0 0
                      CHANNELS 3 Zrotation Xrotation Yrotation
                      JOINT LeftHandThumb3
                      {
                        OFFSET 2.55832 0 0
                        CHANNELS 3 Zrotation Xrotation Yrotation
                        End Site
                        {
                          OFFSET 2.194 0 0
                        }
                      }
                    }
                  }
                  JOINT LeftInHandIndex
                  {
                    OFFSET 3.22368 0.508421 1.97842
                    CHANNELS 3 Zrotation Xrotation Yrotation
                    JOINT LeftHandIndex1
                    {
                      OFFSET 5.21684 -0.091368 0.999158
                      CHANNELS 3 Zrotation Xrotation Yrotation
                      JOINT LeftHandIndex2
                      {
                        OFFSET 3.61937 0 0
                        CHANNELS 3 Zrotation Xrotation Yrotation
                        JOINT LeftHandIndex3
                        {
                          OFFSET 2.0521 0 0
                          CHANNELS 3 Zrotation Xrotation Yrotation
                          End Site
                          {
                            OFFSET 1.805 0 0
                          }
                        }
                      }
                    }
                  }
                  JOINT LeftInHandMiddle
                  {
                    OFFSET 3.38211 0.517263 0.756737
                    CHANNELS 3 Zrotation Xrotation Yrotation
                    JOINT LeftHandMiddle1
                    {
                      OFFSET 5.17411 -0.084 0.313895
                      CHANNELS 3 Zrotation Xrotation Yrotation
                      JOINT LeftHandMiddle2
                      {
                        OFFSET 3.94947 0 0
                        CHANNELS 3 Zrotation Xrotation Yrotation
                        JOINT LeftHandMiddle3
                        {
                          OFFSET 2.47579 0 0
                          CHANNELS 3 Zrotation Xrotation Yrotation
                          End Site
                          {
                            OFFSET 1.975 0 0
                          }
                        }
                      }
                    }
                  }
                  JOINT LeftInHandRing
                  {
                    OFFSET 3.36516 0.537895 -0.128947
                    CHANNELS 3 Zrotation Xrotation Yrotation
                    JOINT LeftHandRing1
                    {
                      OFFSET 4.63474 -0.022105 -0.478947
                      CHANNELS 3 Zrotation Xrotation Yrotation
                      JOINT LeftHandRing2
                      {
                        OFFSET 3.44238 0 0
                        CHANNELS 3 Zrotation Xrotation Yrotation
                        JOINT LeftHandRing3
                        {
                          OFFSET 2.3881 0 0
                          CHANNELS 3 Zrotation Xrotation Yrotation
                          End Site
                          {
                            OFFSET 1.857 0 0
                          }
                        }
                      }
                    }
                  }
                  JOINT LeftInHandPinky
                  {
                    OFFSET 3.16105 0.469368 -1.20179
                    CHANNELS 3 Zrotation Xrotation Yrotation
                    JOINT LeftHandPinky1
                    {
                      OFFSET 4.14105 -0.022105 -1.09053
                      CHANNELS 3 Zrotation Xrotation Yrotation
                      JOINT LeftHandPinky2
                      {
                        OFFSET 2.75653 0 0
                        CHANNELS 3 Zrotation Xrotation Yrotation
                        JOINT LeftHandPinky3
                        {
                          OFFSET 1.74189 0 0
                          CHANNELS 3 Zrotation Xrotation Yrotation
                          End Site
                          {
                            OFFSET 1.645 0 0
                          }
                        }
                      }
                    }
                  }
                }
              }
            }
          }
        }
      }
    }
  }
}
MOTION
Frames: 3
Frame Time: 0.00833333
5.999962847828404620e+02 -8.116068920377052937e-04 -9.724435124150176274e-03 -3.271380104470546918e-02 -1.976749317919090660e-03 7.268437552480199598e-03 2.210409034188886082e-03 2.058944139950490831e-02 7.270297184901947096e-02 -1.954034895584977338e-02 3.274739083608496637e-02 -7.776197693374762437e-03 4.371339335164671491e-02 -2.525683681249698068e-02 -7.067781923461081972e-02 -5.941235474851403603e-02 1.283386036522374957e-02 -2.421158517893975612e-03 5.244130332403069278e-02 -2.470582840512907871e-02 -4.734097308111070990e-02 1.685361513791927210e-02 1.408445630442144506e-02 8.744925617604204504e-04 -1.628957159405800686e-02 2.666480260325722069e-03 1.822427066834809636e-02 -5.026976258691885462e-03 -3.451470146158573194e-05 3.674097160177007375e-03 -7.661794694740986511e-03 -2.829640920166827086e-04 5.836553190580497964e-03 1.644524004335519863e-03 1.448726956548138664e-03 -1.500322958229600599e-03 3.769341368341255771e-03 7.602266932908492529e-03 2.091815244471021892e-02 3.800216814472894694e-02 -1.701160130538392767e-03 -6.733649600884542008e-02 -5.477170816393247404e-02 -4.771750662364074996e-03 4.339931907996905786e-02 6.750712091683803637e-03 6.088095981290068265e-03 -1.331042693953842226e-01 1.085843833152454613e-01 -1.074468741418040107e-02 -5.578255439491555667e-02 -6.160612308390144704e-02 3.140223674467061965e-01 -7.633740888233206401e-02 0.000000000000000000e+00 0.000000000000000000e+00 0.000000000000000000e+00 -5.319822753799090054e-16 -2.925211953093908528e-16 0.000000000000000000e+00 -2.067583524246061296e-16 -1.557096047002910020e-16 0.000000000000000000e+00 1.167096889846511472e-15 9.667228394711906814e-17 -7.330539461550953288e-17 0.000000000000000000e+00 0.000000000000000000e+00 0.000000000000000000e+00 0.000000000000000000e+00 -3.870713308804787213e-17 -1.234443257388541501e-16 0.000000000000000000e+00 -4.516332929061198213e-17 -3.963116275448947915e-16 1.167096889846511472e-15 9.667228394711906814e-17 -7.330539461550953288e-17 0.000000000000000000e+00 -2.722926139564527439e-16 6.854321699285234392e-17 0.000000000000000000e+00 -7.433409391817362705e-17 2.336843950771710875e-16 0.000000000000000000e+00 2.690252734201046490e-16 2.285282990894522695e-16 1.167096889846511472e-15 9.667228394711906814e-17 -7.330539461550953288e-17 0.000000000000000000e+00 0.000000000000000000e+00 0.000000000000000000e+00 0.000000000000000000e+00 -1.274847072767868205e-16 3.112117990931682534e-16 0.000000000000000000e+00 1.556204234721764273e-16 4.614611266198356458e-16 1.167096889846511472e-15 9.667228394711906814e-17 -7.330539461550953288e-17 0.000000000000000000e+00 0.000000000000000000e+00 0.000000000000000000e+00 0.000000000000000000e+00 8.744835980703933032e-17 -3.205779345950070961e-16 0.000000000000000000e+00 5.863094559574037545e-16 -2.053653891451264884e-16 -4.882205143779637206e-03 -4.799535536431741647e-03 -8.110486946971006902e-03 -5.532500961023707753e-02 -5.259573627350308533e-02 8.806267795545091870e-02 -3.898006896015293599e-02 -1.349925074825333859e-02 -1.497568771314017333e-03 -7.370332437343089793e-02 -1.442526753059152761e-02 2.239981735648437916e-02 0.000000000000000000e+00 0.000000000000000000e+00 0.000000000000000000e+00 -3.096934038209668025e-16 6.781793163199010954e-16 0.000000000000000000e+00 8.982499175729894461e-17 5.195195835863172639e-16 0.000000000000000000e+00 4.590490433854677792e-16 -7.239584753044260948e-17 1.674317258314914180e-16 0.000000000000000000e+00 0.000000000000000000e+00 0.000000000000000000e+00 0.000000000000000000e+00 -1.036571682186652115e-16 4.060767486588739213e-16 0.000000000000000000e+00 3.749836205897607651e-16 2.010377374279379231e-16 4.590490433854677792e-16 -7.239584753044260948e-17 1.674317258314914180e-16 0.000000000000000000e+00 3.262526006949834021e-16 -1.115488642698695086e-16 0.000000000000000000e+00 -6.319114817052413502e-16 9.984358048031463432e-17 0.000000000000000000e+00 -1.855544693951975130e-16 9.861853656095396115e-17 4.590490433854677792e-16 -7.239584753044260948e-17 1.674317258314914180e-16 0.000000000000000000e+00 0.000000000000000000e+00 0.000000000000000000e+00 0.000000000000000000e+00 -6.286617930238855507e-17 4.106080198114734769e-17 0.000000000000000000e+00 -1.560941354758755420e-16 1.498638312606061451e-16 4.590490433854677792e-16 -7.239584753044260948e-17 1.674317258314914180e-16 0.000000000000000000e+00 0.000000000000000000e+00 0.000000000000000000e+00 0.000000000000000000e+00 -1.488309158842650553e-16 4.055184078151725337e-16 0.000000000000000000e+00 4.181773948896390730e-17 1.559655571792281740e-17
5.999993589862566523e+02 5.013701165676927654e-03 -1.665273491311088094e-02 -2.804352065342843869e-02 1.301282575149389532e-02 3.019194263979895973e-02 -1.816833720956220408e-02 1.806842291840402015e-02 2.623975120253433518e-02 -2.315807218083863750e-02 1.694413638859425600e-02 3.241572897841362311e-03 3.239989044793344791e-02 -1.992538594326571239e-02 -6.300593390386080572e-02 -5.593434617708881174e-02 3.703241262493406696e-03 -2.367537828898649138e-02 5.105748256325600559e-02 -3.027402586740023105e-02 -4.459484047090838538e-02 1.787433746576253327e-02 3.108037009374641987e-02 -5.987032997790603384e-03 -3.560719484431214710e-03 -2.102030991085467992e-03 6.612613902215671788e-03 -1.696024897213702174e-03 -8.464772998033317846e-04 1.378982237424034377e-03 -2.151599361166558165e-03 -1.459214599000524222e-03 2.081176191433020597e-03 8.052303995366655656e-04 8.744434283481707657e-04 -1.683456373473039445e-03 1.276339840980163579e-03 -2.536117340248934121e-03 4.255415518823650600e-02 2.651373177971484002e-02 1.646743629142231879e-02 -9.609566251105139401e-02 -8.398225931252675802e-02 -6.215548121685430388e-03 7.377098932425640854e-02 2.215002449103777721e-02 -8.472173424039844414e-04 -1.779664562059445343e-01 1.168189297806002530e-01 -3.761913421372078264e-02 -4.095011801293745729e-02 -5.710091948490169517e-02 3.145711937472824848e-01 -8.048463638010600052e-02 0.000000000000000000e+00 0.000000000000000000e+00 0.000000000000000000e+00 -9.249561833645487991e-16 -6.333797490463502869e-17 0.000000000000000000e+00 -1.770622939606656429e-16 -2.201747859071758785e-16 0.000000000000000000e+00 7.432413641403168139e-16 -1.479304377817847291e-16 -1.461138871426921701e-16 0.000000000000000000e+00 0.000000000000000000e+00 0.000000000000000000e+00 0.000000000000000000e+00 1.952995039677682368e-17 -7.590735545296594617e-17 0.000000000000000000e+00 1.331180547282956576e-17 -6.536901313340151202e-17 7.432413641403168139e-16 -1.479304377817847291e-16 -1.461138871426921701e-16 0.000000000000000000e+00 -1.273701300340139203e-16 1.432668797601808649e-16 0.000000000000000000e+00 -1.661359606747957958e-16 2.335114256853998370e-16 0.000000000000000000e+00 4.278248811352837749e-16 6.462217403507753676e-17 7.432413641403168139e-16 -1.479304377817847291e-16 -1.461138871426921701e-16 0.000000000000000000e+00 0.000000000000000000e+00 0.000000000000000000e+00 0.000000000000000000e+00 -1.512648917577089420e-17 4.106906778343386773e-16 0.000000000000000000e+00 5.769811608936669418e-17 6.463858635143922870e-16 7.432413641403168139e-16 -1.479304377817847291e-16 -1.461138871426921701e-16 0.000000000000000000e+00 0.000000000000000000e+00 0.000000000000000000e+00 0.000000000000000000e+00 1.095734664145516055e-16 -1.312571969640701604e-16 0.000000000000000000e+00 5.783780051450517075e-16 6.891329184865433200e-17 -3.111410709787682666e-02 -2.713801579204851502e-02 -4.521496945347865115e-02 -7.327098887179786524e-02 -1.970996700663133622e-02 1.327978537256618852e-01 -1.940026858378402635e-02 2.418049597557851704e-02 6.760837195059751781e-02 -5.050209722605655122e-02 -3.689364450873724999e-02 -2.307298542232315633e-02 0.000000000000000000e+00 0.000000000000000000e+00 0.000000000000000000e+00 -3.778193224952073917e-16 4.974230108345339354e-16 0.000000000000000000e+00 -2.255206411228309355e-16 3.888160968506823153e-16 0.000000000000000000e+00 6.277946134835061697e-16 -2.396971457410814257e-16 2.399908317576221110e-16 0.000000000000000000e+00 0.000000000000000000e+00 0.000000000000000000e+00 0.000000000000000000e+00 -2.065086471656382845e-17 2.492518103143409813e-16 0.000000000000000000e+00 2.002838217668367910e-16 1.125102419873780765e-16 6.277946134835061697e-16 -2.396971457410814257e-16 2.399908317576221110e-16 0.000000000000000000e+00 1.994170948883230320e-16 -1.381236635715266988e-16 0.000000000000000000e+00 -4.563680897854896957e-16 3.555438622235656849e-17 0.000000000000000000e+00 -4.663879537635028780e-16 1.466204607230999023e-16 6.277946134835061697e-16 -2.396971457410814257e-16 2.399908317576221110e-16 0.000000000000000000e+00 0.000000000000000000e+00 0.000000000000000000e+00 0.000000000000000000e+00 -1.692841002045976459e-16 -5.998325503287419665e-18 0.000000000000000000e+00 -3.295915066025454117e-17 7.924290053334342453e-17 6.277946134835061697e-16 -2.396971457410814257e-16 2.399908317576221110e-16 0.000000000000000000e+00 0.000000000000000000e+00 0.000000000000000000e+00 0.000000000000000000e+00 -8.754313938052278104e-17 1.983956428899061381e-16 0.000000000000000000e+00 -3.371555595897319574e-17 1.859507336556715976e-16
6.000024434549051193e+02 9.779733098769878216e-03 -2.125078511595078490e-02 -2.150184198618726103e-02 2.359689146534358836e-02 4.351856292712782959e-02 -3.327244761822803487e-02 1.606659521362081497e-02 -1.786776445116014869e-02 -2.112378530682172337e-02 -1.930785389087341306e-03 1.647264694379888331e-02 1.423353764233642113e-02 -1.203665556594210595e-02 -4.935338306041257839e-02 -4.377952179469804528e-02 -1.611668174429745949e-03 -3.335701675137092009e-02 4.192431601225425630e-02 -3.172675000857254346e-02 -3.304618970699605557e-02 1.495814587049100475e-02 3.957767543135062849e-02 -1.869514788035278596e-02 7.584535340590283295e-03 -6.465726702344292733e-03 -1.749817302242290089e-03 1.389084006281837095e-03 -1.588393762862775997e-03 1.871955227504394246e-05 2.817890943519406246e-03 -2.549057598425274584e-03 -1.190534583333463601e-04 -9.506508454759777626e-05 2.841585796531900430e-04 -1.682336448272789536e-03 -9.074992030228764845e-04 -1.224120583935763007e-02 6.255987148697478295e-02 1.288155408960074341e-02 3.345316424331977456e-02 -1.158313946377470816e-01 -9.969291925504197849e-02 -4.115079014985889051e-03 1.010448391215818809e-01 4.263393916392706900e-02 8.019486753154777409e-03 -1.907042745098331271e-01 8.222242143501040657e-02 -7.650043574782107447e-02 -8.944879783905308052e-03 -4.211520552902615899e-02 2.507876537573959230e-01 -7.184039085977778072e-02 0.000000000000000000e+00 0.000000000000000000e+00 0.000000000000000000e+00 -1.139810526810094379e-15 2.068448000303142464e-16 0.000000000000000000e+00 -1.515586433147988385e-16 -2.343173009921349011e-16 0.000000000000000000e+00 9.415483374866162738e-17 -3.526166746434041110e-16 -1.660341373737663325e-16 0.000000000000000000e+00 0.000000000000000000e+00 0.000000000000000000e+00 0.000000000000000000e+00 5.614315504384817774e-17 -5.319926451262651353e-17 0.000000000000000000e+00 4.318019708622271643e-17 2.571445281580748636e-16 9.415483374866162738e-17 -3.526166746434041110e-16 -1.660341373737663325e-16 0.000000000000000000e+00 4.004505855472852171e-17 1.534113189609249595e-16 0.000000000000000000e+00 -2.261456644370824444e-16 1.587625900982329706e-16 0.000000000000000000e+00 4.702956163851175458e-16 -1.074580676760113873e-16 9.415483374866162738e-17 -3.526166746434041110e-16 -1.660341373737663325e-16 0.000000000000000000e+00 0.000000000000000000e+00 0.000000000000000000e+00 0.000000000000000000e+00 1.166272595946497740e-16 3.795410070081347894e-16 0.000000000000000000e+00 -4.288602824022035129e-17 6.563476126233210888e-16 9.415483374866162738e-17 -3.526166746434041110e-16 -1.660341373737663325e-16 0.000000000000000000e+00 0.000000000000000000e+00 0.000000000000000000e+00 0.000000000000000000e+00 1.248371633267167538e-16 4.776652552995354612e-17 0.000000000000000000e+00 4.041741076803489544e-16 2.932414331461798766e-16 -4.581623659138963495e-02 -4.202357514383968373e-02 -6.985485968923152433e-02 -8.080378758581006904e-02 4.117369498515099924e-03 1.617983703547611896e-01 -4.664838371594907766e-03 4.558576784727527004e-02 1.153819135042938870e-01 -2.948139585699861148e-02 -4.862108729867056778e-02 -5.453287098162017121e-02 0.000000000000000000e+00 0.000000000000000000e+00 0.000000000000000000e+00 -3.727050150330730980e-16 2.659526614335544497e-16 0.000000000000000000e+00 -5.268710164831045859e-16 1.873300691429446986e-16 0.000000000000000000e+00 7.469387801101798944e-16 -3.764635067277536564e-16 2.896383595137454560e-16 0.000000000000000000e+00 0.000000000000000000e+00 0.000000000000000000e+00 0.000000000000000000e+00 3.552501085826205869e-17 9.317157286909852038e-17 0.000000000000000000e+00 -1.699117386707082355e-17 4.216018176051605753e-17 7.469387801101798944e-16 -3.764635067277536564e-16 2.896383595137454560e-16 0.000000000000000000e+00 1.830869155764775072e-17 -6.545230524644993378e-17 0.000000000000000000e+00 -2.005573288822832832e-16 -6.473799922257548422e-19 0.000000000000000000e+00 -6.745249314759775514e-16 1.731025437814511231e-16 7.469387801101798944e-16 -3.764635067277536564e-16 2.896383595137454560e-16 0.000000000000000000e+00 0.000000000000000000e+00 0.000000000000000000e+00 0.000000000000000000e+00 -2.381663018161802215e-16 -1.021847699472154875e-17 0.000000000000000000e+00 9.999767227856610083e-17 -4.199349976926292224e-18 7.469387801101798944e-16 -3.764635067277536564e-16 2.896383595137454560e-16 0.000000000000000000e+00 0.000000000000000000e+00 0.000000000000000000e+00 0.000000000000000000e+00 -2.829505632799929987e-18 -5.388117904476843777e-17 0.000000000000000000e+00 -1.196592708369125570e-16 3.380952187885834181e-16
